<?xml version="1.0" encoding="utf-8"?>
<!-- Generator: Adobe Illustrator 21.1.0, SVG Export Plug-In . SVG Version: 6.00 Build 0)  -->
<svg version="1.1" id="Layer_1" xmlns="http://www.w3.org/2000/svg" xmlns:xlink="http://www.w3.org/1999/xlink" x="0px" y="0px"
	 viewBox="0 0 123.1 38" enable-background="new 0 0 123.1 38" xml:space="preserve">
<g>
	<path fill="#172A52" stroke="#172A52" stroke-width="0.75" stroke-miterlimit="10" d="M25,9.3c1.8,0,3.5,0.4,5,1.1v3.5
		c-1.5-0.9-2.9-1.3-4.2-1.3c-1.4,0-2.6,0.4-3.5,1.3C21.4,14.8,21,16,21,17.5c0,1.5,0.5,2.7,1.4,3.5c0.9,0.9,2.1,1.3,3.6,1.3
		c1.1,0,2.6-0.4,4.3-1.1v3.3c-1.6,0.7-3.3,1-5,1c-2.5,0-4.6-0.7-6.2-2.2c-1.6-1.5-2.4-3.4-2.4-5.8c0-2.5,0.8-4.5,2.3-6
		C20.5,10.1,22.5,9.3,25,9.3z"/>
	<path fill="#172A52" stroke="#172A52" stroke-width="0.75" stroke-miterlimit="10" d="M41.1,9.3c1.6,0,3.1,0.3,4.5,1
		c1.3,0.7,2.4,1.6,3.1,2.9c0.7,1.2,1.1,2.6,1.1,4.2c0,1.6-0.4,3.1-1.1,4.3c-0.7,1.2-1.7,2.2-3.1,2.9c-1.4,0.7-2.9,1.1-4.5,1.1
		c-1.6,0-3.1-0.4-4.5-1.1s-2.4-1.7-3.1-2.9c-0.7-1.2-1.1-2.6-1.1-4.3c0-1.6,0.4-3,1.1-4.2c0.7-1.2,1.8-2.2,3.1-2.9
		C38,9.7,39.5,9.3,41.1,9.3z M36.8,17.4c0,1.6,0.4,2.8,1.2,3.8c0.8,0.9,1.8,1.4,3.1,1.4c1.3,0,2.4-0.4,3.2-1.3
		c0.8-0.9,1.2-2.2,1.2-3.9c0-1.6-0.4-2.8-1.2-3.7c-0.8-0.9-1.8-1.3-3.2-1.3c-1.3,0-2.3,0.5-3.1,1.4C37.2,14.7,36.8,15.9,36.8,17.4z"
		/>
	<path fill="#172A52" stroke="#172A52" stroke-width="0.75" stroke-miterlimit="10" d="M61.4,9.3c1.7,0,3,0.6,4,1.7s1.5,2.6,1.5,4.4
		v10h-4.1v-9.6c0-1-0.2-1.8-0.7-2.4c-0.5-0.6-1.2-0.9-2-0.9c-0.6,0-1.2,0.2-1.8,0.6c-0.6,0.4-1.2,1-1.9,1.9v10.4h-4.1V9.6h4.1v2.2
		c0.8-0.9,1.5-1.5,2.3-1.9C59.6,9.5,60.5,9.3,61.4,9.3z"/>
	<path fill="#172A52" stroke="#172A52" stroke-width="0.75" stroke-miterlimit="10" d="M75.7,9.3c0.9,0,1.7,0.1,2.4,0.3
		c0.8,0.2,1.6,0.5,2.4,0.9v3.3c-0.8-0.5-1.6-0.9-2.5-1.2c-0.9-0.3-1.7-0.5-2.4-0.5c-0.6,0-1.1,0.1-1.4,0.3c-0.3,0.2-0.5,0.5-0.5,1
		c0,0.2,0.1,0.5,0.4,0.7c0.3,0.2,1,0.7,2.3,1.3c1.8,0.9,3.1,1.7,3.8,2.5c0.7,0.8,1.1,1.7,1.1,2.8c0,1.5-0.5,2.7-1.6,3.6
		c-1.1,0.9-2.5,1.3-4.3,1.3c-1.1,0-2.2-0.1-3.1-0.4s-1.8-0.5-2.4-0.9v-3.4c2,1.1,3.7,1.7,5.1,1.7c0.7,0,1.3-0.1,1.7-0.4
		s0.7-0.6,0.7-1c0-0.2-0.1-0.5-0.2-0.7c-0.2-0.2-0.4-0.4-0.7-0.6c-0.3-0.2-1.3-0.7-2.9-1.5c-1.3-0.6-2.2-1.3-2.8-2
		c-0.6-0.7-0.9-1.6-0.9-2.5c0-1.4,0.5-2.5,1.6-3.3C72.5,9.7,73.9,9.3,75.7,9.3z"/>
	<path fill="#172A52" stroke="#172A52" stroke-width="0.75" stroke-miterlimit="10" d="M87.9,9.6v9.7c0,1,0.3,1.8,0.8,2.3
		c0.5,0.5,1.2,0.8,2,0.8c0.7,0,1.4-0.2,2-0.6c0.6-0.4,1.2-1,1.5-1.8V9.6h4.1v15.7h-4.1v-2.1c-1.5,1.6-3.1,2.4-4.8,2.4
		c-1.7,0-3-0.5-4.1-1.6c-1-1.1-1.5-2.5-1.5-4.3V9.6H87.9z"/>
	<path fill="#172A52" stroke="#172A52" stroke-width="0.75" stroke-miterlimit="10" d="M106.4,1.8v23.5h-4.1V1.8H106.4z"/>
	<path fill="#172A52" stroke="#172A52" stroke-width="0.75" stroke-miterlimit="10" d="M114.5,5.5h0.3v4.2h5.4v3.1h-5.4V20
		c0,0.7,0.2,1.3,0.6,1.7c0.4,0.4,1,0.7,1.8,0.7c1,0,2.1-0.3,3.3-1v3.3c-1.5,0.7-2.9,1-4.2,1c-1.8,0-3.2-0.5-4.1-1.4
		c-1-1-1.5-2.3-1.5-3.9v-7.5h-2.5v-0.7L114.5,5.5z"/>
</g>
<polygon fill="#9B9B9B" points="11.3,2.3 2.1,12.6 2.1,25.8 11.3,15.6 "/>
<polygon fill="#172A52" points="11.3,36.1 2.1,25.8 2.1,12.6 11.3,22.9 "/>
<g>
	<path fill="#9B9B9B" d="M20.6,29.6c0.6,0,1.2,0.2,1.8,0.5v1.1c-0.7-0.4-1.3-0.6-1.8-0.6c-0.3,0-0.6,0.1-0.7,0.2s-0.3,0.3-0.3,0.5
		c0,0.2,0.2,0.5,0.5,0.7c0.1,0.1,0.4,0.2,1.1,0.5c0.5,0.2,0.9,0.5,1.1,0.8c0.2,0.3,0.3,0.7,0.3,1.1c0,0.6-0.2,1-0.6,1.3
		c-0.4,0.3-0.9,0.5-1.5,0.5c-0.4,0-0.8,0-1.1-0.1c-0.3-0.1-0.6-0.2-1-0.5v-1.2c0.7,0.6,1.3,0.9,1.9,0.9c0.3,0,0.5-0.1,0.7-0.2
		c0.2-0.1,0.3-0.3,0.3-0.5c0-0.3-0.2-0.5-0.5-0.7c-0.3-0.1-0.6-0.3-1-0.5c-0.5-0.2-0.9-0.5-1.1-0.8s-0.4-0.7-0.4-1.1
		c0-0.5,0.2-1,0.6-1.3C19.4,29.8,20,29.6,20.6,29.6z"/>
	<path fill="#9B9B9B" d="M27.1,29.6c0.7,0,1.3,0.1,1.8,0.4c0.5,0.3,1,0.7,1.3,1.2c0.3,0.5,0.5,1.1,0.5,1.7c0,0.6-0.2,1.2-0.5,1.7
		c-0.3,0.5-0.7,0.9-1.3,1.2c-0.5,0.3-1.1,0.4-1.8,0.4c-0.7,0-1.3-0.1-1.8-0.4c-0.5-0.3-1-0.7-1.3-1.2c-0.3-0.5-0.5-1.1-0.5-1.7
		c0-0.6,0.2-1.1,0.5-1.7s0.7-0.9,1.3-1.2C25.8,29.7,26.4,29.6,27.1,29.6z M24.8,32.9c0,0.4,0.1,0.8,0.3,1.2s0.5,0.6,0.8,0.8
		c0.3,0.2,0.7,0.3,1.2,0.3c0.7,0,1.2-0.2,1.6-0.6c0.4-0.4,0.6-0.9,0.6-1.6c0-0.4-0.1-0.8-0.3-1.2c-0.2-0.3-0.5-0.6-0.8-0.8
		c-0.3-0.2-0.7-0.3-1.2-0.3s-0.8,0.1-1.2,0.3c-0.3,0.2-0.6,0.5-0.8,0.8C24.9,32.1,24.8,32.5,24.8,32.9z"/>
	<path fill="#9B9B9B" d="M33,29.7v5.5h3.1v1h-4.4v-6.4H33z"/>
	<path fill="#9B9B9B" d="M38.3,29.7v6.4H37v-6.4H38.3z"/>
	<path fill="#9B9B9B" d="M43.1,29.6c0.4,0,0.7,0,1.1,0.1c0.3,0.1,0.7,0.2,1.1,0.4v1.2c-0.4-0.2-0.8-0.4-1.1-0.5s-0.7-0.2-1.1-0.2
		c-0.5,0-0.9,0.1-1.2,0.3c-0.4,0.2-0.7,0.5-0.9,0.8c-0.2,0.3-0.3,0.7-0.3,1.1c0,0.4,0.1,0.8,0.3,1.2c0.2,0.3,0.5,0.6,0.9,0.8
		s0.8,0.3,1.2,0.3c0.4,0,0.7-0.1,1-0.2c0.3-0.1,0.7-0.3,1.2-0.5v1.2c-0.4,0.2-0.8,0.4-1.2,0.5c-0.3,0.1-0.8,0.1-1.2,0.1
		c-0.7,0-1.3-0.1-1.8-0.4c-0.5-0.3-1-0.7-1.3-1.2c-0.3-0.5-0.5-1.1-0.5-1.7c0-0.6,0.2-1.2,0.5-1.7c0.3-0.5,0.7-0.9,1.3-1.2
		C41.8,29.7,42.4,29.6,43.1,29.6z"/>
	<path fill="#9B9B9B" d="M47.8,29.7v6.4h-1.2v-6.4H47.8z"/>
	<path fill="#9B9B9B" d="M54.6,29.7v1h-2.3v5.5h-1.2v-5.5h-2.3v-1H54.6z"/>
	<path fill="#9B9B9B" d="M58.5,29.6c0.7,0,1.3,0.1,1.8,0.4c0.5,0.3,1,0.7,1.3,1.2c0.3,0.5,0.5,1.1,0.5,1.7c0,0.6-0.2,1.2-0.5,1.7
		c-0.3,0.5-0.7,0.9-1.3,1.2c-0.5,0.3-1.1,0.4-1.8,0.4c-0.7,0-1.3-0.1-1.8-0.4c-0.5-0.3-1-0.7-1.3-1.2c-0.3-0.5-0.5-1.1-0.5-1.7
		c0-0.6,0.2-1.1,0.5-1.7s0.7-0.9,1.3-1.2C57.2,29.7,57.8,29.6,58.5,29.6z M56.2,32.9c0,0.4,0.1,0.8,0.3,1.2s0.5,0.6,0.8,0.8
		c0.3,0.2,0.7,0.3,1.2,0.3c0.7,0,1.2-0.2,1.6-0.6c0.4-0.4,0.6-0.9,0.6-1.6c0-0.4-0.1-0.8-0.3-1.2c-0.2-0.3-0.5-0.6-0.8-0.8
		c-0.3-0.2-0.7-0.3-1.2-0.3s-0.8,0.1-1.2,0.3c-0.3,0.2-0.6,0.5-0.8,0.8C56.3,32.1,56.2,32.5,56.2,32.9z"/>
	<path fill="#9B9B9B" d="M65.5,29.7c0.6,0,1.1,0.2,1.5,0.5c0.4,0.3,0.6,0.8,0.6,1.3c0,0.4-0.1,0.7-0.3,1s-0.5,0.5-0.8,0.6
		c0.2,0.1,0.4,0.3,0.5,0.5c0.2,0.2,0.4,0.5,0.6,1c0.4,0.8,0.7,1.3,0.9,1.6h-1.4c-0.1-0.1-0.2-0.4-0.4-0.7c-0.4-0.7-0.6-1.1-0.8-1.4
		c-0.2-0.2-0.3-0.4-0.5-0.5c-0.2-0.1-0.3-0.1-0.5-0.1h-0.5v2.7h-1.2v-6.4H65.5z M65.2,32.4c0.3,0,0.6-0.1,0.8-0.2s0.3-0.4,0.3-0.7
		c0-0.3-0.1-0.5-0.3-0.7c-0.2-0.1-0.4-0.2-0.8-0.2h-0.8v1.8H65.2z"/>
	<path fill="#9B9B9B" d="M71,29.6c0.6,0,1.2,0.2,1.8,0.5v1.1c-0.7-0.4-1.3-0.6-1.8-0.6c-0.3,0-0.6,0.1-0.7,0.2s-0.3,0.3-0.3,0.5
		c0,0.2,0.2,0.5,0.5,0.7c0.1,0.1,0.4,0.2,1.1,0.5c0.5,0.2,0.9,0.5,1.1,0.8c0.2,0.3,0.3,0.7,0.3,1.1c0,0.6-0.2,1-0.6,1.3
		c-0.4,0.3-0.9,0.5-1.5,0.5c-0.4,0-0.8,0-1.1-0.1c-0.3-0.1-0.6-0.2-1-0.5v-1.2c0.7,0.6,1.3,0.9,1.9,0.9c0.3,0,0.5-0.1,0.7-0.2
		c0.2-0.1,0.3-0.3,0.3-0.5c0-0.3-0.2-0.5-0.5-0.7c-0.3-0.1-0.6-0.3-1-0.5c-0.5-0.2-0.9-0.5-1.1-0.8s-0.4-0.7-0.4-1.1
		c0-0.5,0.2-1,0.6-1.3C69.8,29.8,70.4,29.6,71,29.6z"/>
</g>
</svg>
